<svg width="261" height="261" viewBox="0 0 261 261" fill="none" xmlns="http://www.w3.org/2000/svg">
<g filter="url(#filter0_d_33_445)">
<rect x="40.4479" y="36.4058" width="180" height="180" rx="32" fill="white"/>
<rect x="40.9479" y="36.9058" width="179" height="179" rx="31.5" stroke="white"/>
</g>
<path d="M130 77.2343C102.389 77.2343 80 99.6197 80 127.234C80 149.326 94.3266 168.068 114.193 174.68C116.692 175.143 117.61 173.595 117.61 172.274C117.61 171.082 117.563 167.143 117.542 162.965C103.631 165.99 100.696 157.066 100.696 157.066C98.4217 151.287 95.1446 149.75 95.1446 149.75C90.6083 146.647 95.4865 146.71 95.4865 146.71C100.508 147.063 103.151 151.863 103.151 151.863C107.611 159.507 114.848 157.297 117.701 156.02C118.15 152.788 119.446 150.582 120.876 149.334C109.77 148.069 98.0954 143.782 98.0954 124.623C98.0954 119.165 100.049 114.704 103.247 111.202C102.728 109.943 101.017 104.858 103.732 97.9704C103.732 97.9704 107.93 96.6265 117.485 103.096C121.473 101.987 125.751 101.432 130 101.413C134.249 101.432 138.53 101.987 142.526 103.096C152.07 96.6265 156.262 97.9704 156.262 97.9704C158.984 104.858 157.272 109.943 156.753 111.202C159.958 114.704 161.898 119.164 161.898 124.623C161.898 143.827 150.201 148.056 139.068 149.294C140.861 150.845 142.459 153.888 142.459 158.553C142.459 165.243 142.401 170.627 142.401 172.274C142.401 173.605 143.301 175.164 145.836 174.673C165.691 168.054 180 149.319 180 127.234C180 99.6197 157.614 77.2343 130 77.2343Z" fill="#161614"/>
<path d="M98.7267 148.461C98.6169 148.709 98.2255 148.784 97.8699 148.613C97.5071 148.45 97.3032 148.111 97.4209 147.862C97.5287 147.606 97.9201 147.535 98.282 147.707C98.6455 147.869 98.8526 148.211 98.7267 148.461ZM101.186 150.655C100.948 150.876 100.482 150.774 100.165 150.424C99.838 150.076 99.7769 149.61 100.019 149.385C100.265 149.164 100.717 149.267 101.045 149.616C101.372 149.969 101.435 150.432 101.186 150.656L101.186 150.655ZM102.874 153.463C102.567 153.676 102.066 153.476 101.756 153.032C101.45 152.587 101.45 152.054 101.763 151.84C102.074 151.627 102.567 151.819 102.881 152.26C103.187 152.712 103.187 153.245 102.873 153.463L102.874 153.463ZM105.727 156.715C105.453 157.017 104.869 156.936 104.442 156.524C104.005 156.121 103.883 155.548 104.158 155.246C104.435 154.943 105.022 155.028 105.453 155.437C105.887 155.84 106.019 156.416 105.727 156.715H105.727ZM109.415 157.813C109.294 158.204 108.732 158.382 108.166 158.216C107.6 158.045 107.23 157.586 107.344 157.19C107.462 156.796 108.026 156.611 108.597 156.789C109.162 156.959 109.533 157.415 109.415 157.813H109.415ZM113.612 158.278C113.626 158.691 113.146 159.033 112.551 159.04C111.953 159.053 111.47 158.72 111.464 158.314C111.464 157.898 111.933 157.559 112.531 157.549C113.125 157.537 113.612 157.869 113.612 158.278ZM117.735 158.12C117.806 158.523 117.393 158.936 116.803 159.046C116.223 159.152 115.685 158.904 115.611 158.505C115.539 158.092 115.96 157.679 116.539 157.572C117.131 157.469 117.66 157.711 117.735 158.12Z" fill="#161614"/>
<defs>
<filter id="filter0_d_33_445" x="0.447876" y="0.405762" width="260" height="260" filterUnits="userSpaceOnUse" color-interpolation-filters="sRGB">
<feFlood flood-opacity="0" result="BackgroundImageFix"/>
<feColorMatrix in="SourceAlpha" type="matrix" values="0 0 0 0 0 0 0 0 0 0 0 0 0 0 0 0 0 0 127 0" result="hardAlpha"/>
<feOffset dy="4"/>
<feGaussianBlur stdDeviation="20"/>
<feComposite in2="hardAlpha" operator="out"/>
<feColorMatrix type="matrix" values="0 0 0 0 0.0367917 0 0 0 0 0.0348958 0 0 0 0 0.0484375 0 0 0 0.1 0"/>
<feBlend mode="normal" in2="BackgroundImageFix" result="effect1_dropShadow_33_445"/>
<feBlend mode="normal" in="SourceGraphic" in2="effect1_dropShadow_33_445" result="shape"/>
</filter>
</defs>
</svg>
