<svg width="261" height="261" viewBox="0 0 261 261" fill="none" xmlns="http://www.w3.org/2000/svg">
<g filter="url(#filter0_d_33_430)">
<rect x="40.724" y="36.4058" width="180" height="180" rx="32" fill="white"/>
<rect x="41.224" y="36.9058" width="179" height="179" rx="31.5" stroke="white"/>
</g>
<path d="M173.11 153.245C167.67 153.108 163.453 153.66 159.916 155.179C158.896 155.593 157.263 155.593 157.127 156.905C157.671 157.457 157.739 158.355 158.216 159.114C159.033 160.494 160.46 162.359 161.752 163.326C163.18 164.43 164.609 165.534 166.105 166.501C168.757 168.158 171.75 169.124 174.335 170.781C175.832 171.747 177.327 172.991 178.823 174.026C179.572 174.578 180.047 175.476 181 175.821V175.614C180.523 174.992 180.387 174.095 179.912 173.405C179.232 172.714 178.551 172.093 177.871 171.402C175.899 168.71 173.451 166.363 170.798 164.43C168.622 162.911 163.86 160.84 162.977 158.285C162.977 158.285 162.908 158.217 162.841 158.148C164.337 158.01 166.105 157.457 167.534 157.043C169.846 156.421 171.954 156.56 174.335 155.938C175.423 155.662 176.511 155.317 177.599 154.972V154.351C176.375 153.108 175.491 151.451 174.199 150.277C170.73 147.239 166.921 144.271 162.977 141.785C160.868 140.404 158.147 139.507 155.903 138.333C155.087 137.919 153.727 137.712 153.251 137.022C152.026 135.503 151.346 133.501 150.462 131.706C148.49 127.908 146.585 123.697 144.885 119.693C143.661 117.001 142.913 114.308 141.416 111.823C134.411 100.086 126.794 92.9755 115.096 86.0022C112.579 84.5526 109.586 83.9312 106.39 83.1721C104.69 83.1027 102.989 82.965 101.289 82.8955C100.201 82.4122 99.1124 81.1007 98.1602 80.4793C94.2842 77.9937 84.2856 72.6093 81.4291 79.7202C79.5925 84.2074 84.1499 88.6256 85.7136 90.9045C86.8707 92.4921 88.3664 94.2869 89.1826 96.0821C89.6588 97.2551 89.7944 98.4987 90.2706 99.7412C91.3593 102.778 92.3788 106.162 93.8076 108.993C94.5559 110.442 95.3717 111.961 96.324 113.273C96.8682 114.032 97.8201 114.377 98.0245 115.62C97.0726 117.001 97.0042 119.072 96.4596 120.798C94.0113 128.599 94.964 138.264 98.4322 143.994C99.5202 145.72 102.105 149.518 105.574 148.068C108.635 146.825 107.954 142.89 108.838 139.438C109.043 138.609 108.907 138.057 109.314 137.505V137.643C110.267 139.576 111.219 141.441 112.103 143.373C114.211 146.756 117.884 150.277 120.944 152.625C122.577 153.867 123.869 156.007 125.91 156.767V156.559H125.773C125.365 155.938 124.753 155.662 124.209 155.178C122.985 153.936 121.624 152.417 120.673 151.036C117.816 147.17 115.299 142.89 113.055 138.471C111.967 136.332 111.014 133.984 110.131 131.844C109.722 131.015 109.722 129.773 109.042 129.359C108.022 130.877 106.526 132.189 105.778 134.053C104.486 137.022 104.35 140.681 103.873 144.477C103.601 144.547 103.737 144.477 103.601 144.616C101.425 144.063 100.677 141.785 99.8603 139.852C97.8197 134.951 97.4796 127.08 99.2485 121.419C99.7246 119.969 101.765 115.413 100.949 114.032C100.541 112.72 99.1801 111.961 98.4322 110.925C97.5484 109.614 96.5957 107.957 95.9839 106.507C94.3514 102.641 93.5352 98.3602 91.767 94.4941C90.9508 92.6989 89.5231 90.8354 88.3664 89.1783C87.0744 87.3145 85.646 86.0022 84.6257 83.7931C84.2859 83.034 83.8094 81.7912 84.3536 80.9627C84.4896 80.4103 84.7613 80.2035 85.3059 80.0655C86.1901 79.3056 88.7069 80.2722 89.5904 80.6865C92.1071 81.7214 94.2154 82.6888 96.324 84.1384C97.2759 84.8288 98.2962 86.1407 99.5202 86.4859H100.949C103.125 86.9689 105.573 86.624 107.614 87.245C111.219 88.4184 114.483 90.1446 117.408 92.0088C126.318 97.7388 133.662 105.885 138.628 115.62C139.444 117.207 139.784 118.658 140.532 120.314C141.961 123.697 143.729 127.149 145.157 130.463C146.585 133.707 147.945 137.022 149.986 139.714C151.006 141.164 155.087 141.923 156.923 142.683C158.284 143.304 160.392 143.857 161.616 144.616C163.928 146.065 166.241 147.723 168.417 149.31C169.506 150.139 172.906 151.865 173.11 153.245Z" fill="black"/>
<path d="M103.737 93.2509C102.581 93.2509 101.765 93.3897 100.949 93.5965V93.7346H101.085C101.629 94.8393 102.581 95.5988 103.261 96.5651C103.805 97.6694 104.281 98.7745 104.825 99.8793C104.893 99.8098 104.961 99.7412 104.961 99.7412C105.914 99.0503 106.389 97.946 106.389 96.2889C105.981 95.8059 105.913 95.3226 105.573 94.8393C105.165 94.1485 104.281 93.8036 103.737 93.2509Z" fill="black"/>
<defs>
<filter id="filter0_d_33_430" x="0.723999" y="0.405762" width="260" height="260" filterUnits="userSpaceOnUse" color-interpolation-filters="sRGB">
<feFlood flood-opacity="0" result="BackgroundImageFix"/>
<feColorMatrix in="SourceAlpha" type="matrix" values="0 0 0 0 0 0 0 0 0 0 0 0 0 0 0 0 0 0 127 0" result="hardAlpha"/>
<feOffset dy="4"/>
<feGaussianBlur stdDeviation="20"/>
<feComposite in2="hardAlpha" operator="out"/>
<feColorMatrix type="matrix" values="0 0 0 0 0.0367917 0 0 0 0 0.0348958 0 0 0 0 0.0484375 0 0 0 0.1 0"/>
<feBlend mode="normal" in2="BackgroundImageFix" result="effect1_dropShadow_33_430"/>
<feBlend mode="normal" in="SourceGraphic" in2="effect1_dropShadow_33_430" result="shape"/>
</filter>
</defs>
</svg>
