<svg width="261" height="261" viewBox="0 0 261 261" fill="none" xmlns="http://www.w3.org/2000/svg">
<g filter="url(#filter0_d_33_416)">
<rect x="40.0673" y="36.7029" width="180" height="180" rx="32" fill="white"/>
<rect x="40.5673" y="37.2029" width="179" height="179" rx="31.5" stroke="white"/>
</g>
<path d="M80.9514 112.033C80.9514 112.033 78.5158 110.278 81.4385 107.933L88.2481 101.844C88.2481 101.844 90.1966 99.7942 92.2568 101.58L155.096 149.156V171.97C155.096 171.97 155.065 175.552 150.468 175.157L80.9514 112.033Z" fill="#2489CA"/>
<path d="M97.1483 126.739L80.9514 141.464C80.9514 141.464 79.2871 142.702 80.9514 144.914L88.4714 151.755C88.4714 151.755 90.2575 153.673 92.8961 151.491L110.067 138.47L97.1483 126.739Z" fill="#1070B3"/>
<path d="M125.584 126.86L155.289 104.179L155.096 81.4865C155.096 81.4865 153.827 76.5341 149.596 79.1118L110.067 115.088L125.584 126.86Z" fill="#0877B9"/>
<path d="M150.468 175.187C152.194 176.953 154.284 176.375 154.284 176.375L177.433 164.968C180.396 162.948 179.98 160.441 179.98 160.441V92.325C179.98 89.3312 176.915 88.2961 176.915 88.2961L156.852 78.6246C152.468 75.9149 149.596 79.1117 149.596 79.1117C149.596 79.1117 153.29 76.4528 155.096 81.4864V171.554C155.096 172.173 154.964 172.782 154.7 173.33C154.173 174.396 153.026 175.39 150.276 174.974L150.468 175.187Z" fill="#3C99D4"/>
<defs>
<filter id="filter0_d_33_416" x="0.0672607" y="0.702881" width="260" height="260" filterUnits="userSpaceOnUse" color-interpolation-filters="sRGB">
<feFlood flood-opacity="0" result="BackgroundImageFix"/>
<feColorMatrix in="SourceAlpha" type="matrix" values="0 0 0 0 0 0 0 0 0 0 0 0 0 0 0 0 0 0 127 0" result="hardAlpha"/>
<feOffset dy="4"/>
<feGaussianBlur stdDeviation="20"/>
<feComposite in2="hardAlpha" operator="out"/>
<feColorMatrix type="matrix" values="0 0 0 0 0.0367917 0 0 0 0 0.0348958 0 0 0 0 0.0484375 0 0 0 0.1 0"/>
<feBlend mode="normal" in2="BackgroundImageFix" result="effect1_dropShadow_33_416"/>
<feBlend mode="normal" in="SourceGraphic" in2="effect1_dropShadow_33_416" result="shape"/>
</filter>
</defs>
</svg>
